<svg width="33" height="33" viewBox="0 0 33 33" fill="none" xmlns="http://www.w3.org/2000/svg">
<g clip-path="url(#clip0_14_8470)">
<path d="M6.68115 8.24289C6.68115 7.00416 7.17323 5.81617 8.04915 4.94026C8.92506 4.06435 10.1131 3.57227 11.3518 3.57227H16.0224V12.9135H11.3518C10.1131 12.9135 8.92506 12.4214 8.04915 11.5455C7.17323 10.6696 6.68115 9.48162 6.68115 8.24289Z" stroke="white" stroke-width="1.33446" stroke-linecap="round" stroke-linejoin="round"/>
<path d="M16.0225 3.57227H20.6931C21.3064 3.57227 21.9138 3.69307 22.4805 3.9278C23.0471 4.16252 23.562 4.50655 23.9957 4.94026C24.4294 5.37397 24.7735 5.88885 25.0082 6.45552C25.2429 7.02219 25.3637 7.62954 25.3637 8.24289C25.3637 8.85625 25.2429 9.46359 25.0082 10.0303C24.7735 10.5969 24.4294 11.1118 23.9957 11.5455C23.562 11.9792 23.0471 12.3233 22.4805 12.558C21.9138 12.7927 21.3064 12.9135 20.6931 12.9135H16.0225V3.57227Z" stroke="white" stroke-width="1.33446" stroke-linecap="round" stroke-linejoin="round"/>
<path d="M16.0225 17.5842C16.0225 16.9708 16.1433 16.3635 16.378 15.7968C16.6127 15.2302 16.9567 14.7153 17.3905 14.2816C17.8242 13.8479 18.339 13.5038 18.9057 13.2691C19.4724 13.0344 20.0797 12.9136 20.6931 12.9136C21.3064 12.9136 21.9138 13.0344 22.4805 13.2691C23.0471 13.5038 23.562 13.8479 23.9957 14.2816C24.4294 14.7153 24.7735 15.2302 25.0082 15.7968C25.2429 16.3635 25.3637 16.9708 25.3637 17.5842C25.3637 18.1976 25.2429 18.8049 25.0082 19.3716C24.7735 19.9382 24.4294 20.4531 23.9957 20.8868C23.562 21.3205 23.0471 21.6646 22.4805 21.8993C21.9138 22.134 21.3064 22.2548 20.6931 22.2548C20.0797 22.2548 19.4724 22.134 18.9057 21.8993C18.339 21.6646 17.8242 21.3205 17.3905 20.8868C16.9567 20.4531 16.6127 19.9382 16.378 19.3716C16.1433 18.8049 16.0225 18.1976 16.0225 17.5842V17.5842Z" stroke="white" stroke-width="1.33446" stroke-linecap="round" stroke-linejoin="round"/>
<path d="M6.68115 26.9255C6.68115 25.6868 7.17323 24.4988 8.04915 23.6229C8.92506 22.747 10.1131 22.2549 11.3518 22.2549H16.0224V26.9255C16.0224 28.1642 15.5303 29.3522 14.6544 30.2281C13.7785 31.1041 12.5905 31.5961 11.3518 31.5961C10.1131 31.5961 8.92506 31.1041 8.04915 30.2281C7.17323 29.3522 6.68115 28.1642 6.68115 26.9255Z" stroke="white" stroke-width="1.33446" stroke-linecap="round" stroke-linejoin="round"/>
<path d="M6.68115 17.5842C6.68115 16.3455 7.17323 15.1575 8.04915 14.2816C8.92506 13.4057 10.1131 12.9136 11.3518 12.9136H16.0224V22.2548H11.3518C10.1131 22.2548 8.92506 21.7627 8.04915 20.8868C7.17323 20.0109 6.68115 18.8229 6.68115 17.5842Z" stroke="white" stroke-width="1.33446" stroke-linecap="round" stroke-linejoin="round"/>
</g>
<defs>
<clipPath id="clip0_14_8470">
<rect width="32.0271" height="32.0271" fill="white" transform="translate(0.00878906 0.90332)"/>
</clipPath>
</defs>
</svg>
