<svg width="33" height="33" viewBox="0 0 33 33" fill="none" xmlns="http://www.w3.org/2000/svg">
<g clip-path="url(#clip0_14_8468)">
<path d="M21.3602 29.6049V24.4405C21.4103 23.8042 21.3243 23.1645 21.108 22.564C20.8918 21.9635 20.5501 21.4159 20.1058 20.9576C24.2961 20.4905 28.6998 18.9025 28.6998 11.6163C28.6994 9.75319 27.9828 7.9615 26.6981 6.61209C27.3064 4.98206 27.2634 3.18032 26.578 1.58116C26.578 1.58116 25.0033 1.1141 21.3602 3.55617C18.3017 2.72723 15.0776 2.72723 12.019 3.55617C8.3759 1.1141 6.80123 1.58116 6.80123 1.58116C6.11582 3.18032 6.0728 4.98206 6.68113 6.61209C5.38687 7.97151 4.66945 9.7794 4.67943 11.6564C4.67943 18.8892 9.08316 20.4772 13.2734 20.9976C12.8343 21.4513 12.4957 21.9923 12.2796 22.5855C12.0635 23.1787 11.9747 23.8108 12.019 24.4405V29.6049M12.019 25.6015C5.34666 27.6032 5.34666 22.2654 2.67773 21.5981L12.019 25.6015Z" stroke="white" stroke-width="1.33446" stroke-linecap="round" stroke-linejoin="round"/>
</g>
<defs>
<clipPath id="clip0_14_8468">
<rect width="32.0271" height="32.0271" fill="white" transform="translate(0.00878906 0.246582)"/>
</clipPath>
</defs>
</svg>
