<svg width="53" height="53" viewBox="0 0 53 53" fill="none" xmlns="http://www.w3.org/2000/svg">
<path d="M45.8125 22.1593C45.8125 37.3648 26.2626 50.3981 26.2626 50.3981C26.2626 50.3981 6.71265 37.3648 6.71265 22.1593C6.71265 16.9743 8.77237 12.0017 12.4387 8.33542C16.105 4.66909 21.0776 2.60937 26.2626 2.60938C31.4475 2.60938 36.4201 4.66909 40.0865 8.33542C43.7528 12.0017 45.8125 16.9743 45.8125 22.1593Z" stroke="white" stroke-width="2.0513" stroke-linecap="round" stroke-linejoin="round"/>
<path d="M26.2632 28.6749C29.8623 28.6749 32.7799 25.7573 32.7799 22.1582C32.7799 18.5592 29.8623 15.6416 26.2632 15.6416C22.6642 15.6416 19.7466 18.5592 19.7466 22.1582C19.7466 25.7573 22.6642 28.6749 26.2632 28.6749Z" stroke="white" stroke-width="2.0513" stroke-linecap="round" stroke-linejoin="round"/>
</svg>
