<svg width="50" height="49" viewBox="0 0 50 49" fill="none" xmlns="http://www.w3.org/2000/svg">
<path d="M9.00606 44.8333C8.4351 44.8333 7.95684 44.6399 7.57127 44.253C7.1857 43.8661 6.99225 43.3878 6.99091 42.8182V36.7727C6.99091 35.6644 7.38588 34.7159 8.17581 33.9273C8.96575 33.1387 9.91422 32.7438 11.0212 32.7424H13.6409L14.7492 24.6818H11.0212C10.4502 24.6818 9.97199 24.4884 9.58642 24.1015C9.20086 23.7146 9.0074 23.2363 9.00606 22.6667C9.00471 22.0971 9.19817 21.6188 9.58642 21.2319C9.97467 20.845 10.4529 20.6515 11.0212 20.6515H39.2333C39.8043 20.6515 40.2832 20.845 40.6701 21.2319C41.057 21.6188 41.2498 22.0971 41.2485 22.6667C41.2471 23.2363 41.0537 23.7152 40.6681 24.1035C40.2826 24.4917 39.8043 24.6845 39.2333 24.6818H35.5053L36.6136 32.7424H39.2333C40.3417 32.7424 41.2908 33.1374 42.0807 33.9273C42.8707 34.7173 43.265 35.6657 43.2636 36.7727V42.8182C43.2636 43.3891 43.0702 43.8681 42.6833 44.255C42.2964 44.6419 41.8181 44.8347 41.2485 44.8333H9.00606ZM15.5553 17.6288C15.0851 17.6288 14.6653 17.4857 14.2958 17.1996C13.9264 16.9134 13.6913 16.5359 13.5905 16.0671L11.928 8.56061C11.8609 8.19117 11.8864 7.86337 12.0046 7.57722C12.1228 7.29107 12.3156 7.0647 12.583 6.89811C12.8503 6.73153 13.1526 6.6395 13.4898 6.62204C13.827 6.60457 14.146 6.6966 14.447 6.89811C15.0515 7.23397 15.6729 7.50266 16.311 7.70417C16.9491 7.90569 17.6208 8.00645 18.3261 8.00645C19.3001 8.00645 20.2237 7.80493 21.097 7.4019C21.9702 6.99887 22.7931 6.49508 23.5655 5.89054C23.8006 5.72261 24.0525 5.597 24.3212 5.5137C24.5899 5.43041 24.8586 5.38809 25.1273 5.38675C25.396 5.38541 25.6646 5.42772 25.9333 5.5137C26.202 5.59968 26.4539 5.7253 26.689 5.89054C27.4615 6.49508 28.2843 6.99887 29.1576 7.4019C30.0308 7.80493 30.9544 8.00645 31.9284 8.00645C32.6337 8.00645 33.3054 7.89696 33.9436 7.67798C34.5817 7.459 35.203 7.18225 35.8076 6.84773C36.1434 6.67981 36.4712 6.61263 36.791 6.64622C37.1107 6.67981 37.4042 6.78056 37.6716 6.94849C37.9389 7.11642 38.1404 7.34279 38.2761 7.6276C38.4118 7.91241 38.4454 8.22341 38.3769 8.56061L36.7144 16.0671C36.6136 16.5373 36.3785 16.9154 36.0091 17.2016C35.6396 17.4877 35.2198 17.6301 34.7496 17.6288H15.5553Z" fill="#DBB968"/>
</svg>
