<svg width="20" height="22" viewBox="0 0 20 22" fill="none" xmlns="http://www.w3.org/2000/svg">
<path d="M13.9066 1.22217H6.09383C5.47221 1.22217 4.87605 1.47971 4.43649 1.93813C3.99694 2.39655 3.75 3.01831 3.75 3.66661V10.1851C3.75054 11.7129 4.26557 13.1918 5.20517 14.3639C6.14476 15.5359 7.44922 16.3266 8.89081 16.5977C8.98191 16.6131 9.06485 16.6617 9.12491 16.7347C9.18497 16.8078 9.21829 16.9007 9.21894 16.997V18.7407C9.21894 18.8487 9.17779 18.9524 9.10453 19.0288C9.03127 19.1052 8.93191 19.1481 8.82831 19.1481H7.65639C7.44918 19.1481 7.25046 19.2339 7.10394 19.3867C6.95742 19.5396 6.87511 19.7468 6.87511 19.9629C6.87511 20.179 6.95742 20.3863 7.10394 20.5391C7.25046 20.6919 7.44918 20.7777 7.65639 20.7777H12.3441C12.5513 20.7777 12.75 20.6919 12.8965 20.5391C13.043 20.3863 13.1253 20.179 13.1253 19.9629C13.1253 19.7468 13.043 19.5396 12.8965 19.3867C12.75 19.2339 12.5513 19.1481 12.3441 19.1481H11.1721C11.0685 19.1481 10.9692 19.1052 10.8959 19.0288C10.8227 18.9524 10.7815 18.8487 10.7815 18.7407V16.9888C10.7822 16.8926 10.8155 16.7997 10.8755 16.7266C10.9356 16.6535 11.0185 16.605 11.1096 16.5896C12.5499 16.3187 13.8533 15.5292 14.7928 14.3589C15.7322 13.1885 16.2481 11.7115 16.2504 10.1851V3.66661C16.2504 3.01831 16.0035 2.39655 15.564 1.93813C15.1244 1.47971 14.5282 1.22217 13.9066 1.22217Z" fill="white"/>
<rect opacity="0.5" y="3.6665" width="2.5" height="6.11111" rx="1.25" fill="white"/>
<rect opacity="0.5" x="17.5" y="3.6665" width="2.5" height="6.11111" rx="1.25" fill="white"/>
</svg>
