<svg width="50" height="49" viewBox="0 0 50 49" fill="none" xmlns="http://www.w3.org/2000/svg">
<path d="M45.1515 16.575V16.7221C45.1515 18.4551 45.1515 19.3236 44.7344 20.033C44.3173 20.7423 43.5576 21.1635 42.0422 22.0078L40.4441 22.8945C41.5444 19.1705 41.9132 15.1684 42.0482 11.7467L42.0684 11.3013L42.0724 11.1965C43.3843 11.652 44.1218 11.9925 44.5812 12.6293C45.1515 13.4213 45.1515 14.4732 45.1515 16.575ZM4.84851 16.575V16.7221C4.84851 18.4551 4.84851 19.3236 5.26565 20.033C5.68278 20.7423 6.4425 21.1635 7.95789 22.0078L9.55792 22.8945C8.45563 19.1705 8.08686 15.1684 7.95184 11.7467L7.93169 11.3013L7.92968 11.1965C6.6158 11.652 5.87825 11.9925 5.4188 12.6293C4.84851 13.4213 4.84851 14.4752 4.84851 16.575Z" fill="#DBB968"/>
<path fill-rule="evenodd" clip-rule="evenodd" d="M24.9998 4.15744C28.5949 4.15744 31.5551 4.47382 33.8202 4.8567C36.1154 5.24361 37.262 5.43706 38.2213 6.61794C39.1805 7.79882 39.1281 9.07441 39.0273 11.6256C38.6807 20.3895 36.7905 31.3338 26.5112 32.301V39.4226H29.3929C29.8586 39.4229 30.3098 39.5844 30.6698 39.8798C31.0298 40.1752 31.2764 40.5861 31.3677 41.0428L31.7506 42.9491H37.0907C37.4916 42.9491 37.876 43.1083 38.1594 43.3918C38.4429 43.6752 38.6021 44.0596 38.6021 44.4605C38.6021 44.8613 38.4429 45.2457 38.1594 45.5292C37.876 45.8126 37.4916 45.9718 37.0907 45.9718H12.9089C12.5081 45.9718 12.1237 45.8126 11.8402 45.5292C11.5568 45.2457 11.3976 44.8613 11.3976 44.4605C11.3976 44.0596 11.5568 43.6752 11.8402 43.3918C12.1237 43.1083 12.5081 42.9491 12.9089 42.9491H18.2491L18.632 41.0428C18.7232 40.5861 18.9699 40.1752 19.3299 39.8798C19.6899 39.5844 20.1411 39.4229 20.6068 39.4226H23.4885V32.301C13.2112 31.3338 11.321 20.3875 10.9744 11.6256C10.8716 9.07441 10.8212 7.7968 11.7804 6.61794C12.7376 5.43706 13.8843 5.24361 16.1795 4.8567C19.0951 4.3791 22.0454 4.1452 24.9998 4.15744ZM26.9183 12.6191L26.7208 12.2644C25.955 10.888 25.5721 10.2029 24.9998 10.2029C24.4275 10.2029 24.0447 10.888 23.2789 12.2644L23.0814 12.6191C22.8638 13.01 22.755 13.2035 22.5857 13.3324C22.4144 13.4614 22.2028 13.5098 21.7796 13.6045L21.3967 13.6931C19.9096 14.0297 19.166 14.1969 18.9886 14.7652C18.8113 15.3335 19.3191 15.9279 20.3327 17.1128L20.5947 17.4192C20.8829 17.7557 21.028 17.9229 21.0925 18.1325C21.1569 18.3421 21.1348 18.5658 21.0925 19.0152L21.0522 19.4242C20.899 21.0061 20.8224 21.7981 21.2839 22.1487C21.7474 22.4993 22.4446 22.1789 23.8371 21.5381L24.1958 21.3729C24.5928 21.1915 24.7903 21.1008 24.9998 21.1008C25.2094 21.1008 25.4069 21.1915 25.8039 21.3729L26.1626 21.5381C27.5551 22.181 28.2523 22.4993 28.7158 22.1487C29.1793 21.7981 29.1007 21.0061 28.9475 19.4242L28.9072 19.0152C28.8649 18.5658 28.8427 18.3421 28.9072 18.1325C28.9717 17.9229 29.1168 17.7557 29.405 17.4192L29.6669 17.1128C30.6806 15.9279 31.1884 15.3355 31.011 14.7652C30.8337 14.1969 30.0901 14.0297 28.6029 13.6931L28.2201 13.6045C27.7969 13.5098 27.5853 13.4634 27.414 13.3324C27.2447 13.2035 27.1359 13.01 26.9183 12.6191Z" fill="#DBB968"/>
</svg>
