<svg width="29" height="28" viewBox="0 0 29 28" fill="none" xmlns="http://www.w3.org/2000/svg">
<path d="M7.33325 14C6.85 14 6.45825 13.6082 6.45825 13.125L6.45827 4.375C6.45827 3.89175 6.85002 3.5 7.33327 3.5C7.81652 3.5 8.20827 3.89175 8.20827 4.375L8.20825 13.125C8.20825 13.6083 7.8165 14 7.33325 14Z" fill="white"/>
<path d="M21.3333 14C20.85 14 20.4583 13.6082 20.4583 13.125L20.4583 4.375C20.4583 3.89175 20.85 3.5 21.3333 3.5C21.8165 3.5 22.2083 3.89175 22.2083 4.375L22.2083 13.125C22.2083 13.6083 21.8165 14 21.3333 14Z" fill="white"/>
<path d="M8.20827 23.625L8.20825 21.875C8.20825 21.3917 7.81649 21 7.33324 21C6.84999 21 6.45825 21.3918 6.45825 21.875L6.45827 23.625C6.45827 24.1083 6.85003 24.5 7.33328 24.5C7.81653 24.5 8.20827 24.1082 8.20827 23.625Z" fill="white"/>
<path d="M22.2083 21.875L22.2083 23.625C22.2083 24.1082 21.8165 24.5 21.3333 24.5C20.85 24.5 20.4583 24.1083 20.4583 23.625L20.4583 21.875C20.4582 21.3918 20.85 21 21.3332 21C21.8165 21 22.2082 21.3917 22.2083 21.875Z" fill="white"/>
<path d="M15.2083 6.12499L15.2083 4.37499C15.2082 3.89174 14.8165 3.5 14.3332 3.5C13.85 3.5 13.4582 3.89176 13.4583 4.37501L13.4583 6.12501C13.4583 6.60826 13.85 7 14.3333 7C14.8165 7 15.2083 6.60824 15.2083 6.12499Z" fill="white"/>
<path d="M14.3333 24.5C13.85 24.5 13.4583 24.1082 13.4583 23.625V14.875C13.4583 14.3918 13.85 14 14.3333 14C14.8165 14 15.2083 14.3918 15.2083 14.875V23.625C15.2083 24.1082 14.8165 24.5 14.3333 24.5Z" fill="white"/>
<path d="M4.70825 17.5C4.70825 18.9497 5.8835 20.125 7.33325 20.125C8.783 20.125 9.95825 18.9497 9.95825 17.5C9.95825 16.0503 8.783 14.875 7.33325 14.875C5.8835 14.875 4.70825 16.0503 4.70825 17.5Z" fill="white"/>
<path d="M14.3333 13.125C12.8835 13.125 11.7083 11.9497 11.7083 10.5C11.7083 9.05025 12.8835 7.875 14.3333 7.875C15.783 7.875 16.9583 9.05025 16.9583 10.5C16.9583 11.9497 15.783 13.125 14.3333 13.125Z" fill="white"/>
<path d="M18.7083 17.5C18.7083 18.9497 19.8835 20.125 21.3333 20.125C22.783 20.125 23.9583 18.9497 23.9583 17.5C23.9583 16.0503 22.783 14.875 21.3333 14.875C19.8835 14.875 18.7083 16.0503 18.7083 17.5Z" fill="white"/>
</svg>
