<svg width="24" height="24" viewBox="0 0 24 24" fill="none" xmlns="http://www.w3.org/2000/svg">
<g clip-path="url(#clip0_6_626)">
<path opacity="0.3" d="M12.9487 8.31623L11.0513 7.68377C11.816 5.38965 13.0427 3.95855 14.7575 3.52986C15.6503 3.30665 17 1.86951 17 1H19C19 2.79716 17.0164 5.02668 15.2425 5.47014C14.2907 5.70811 13.5173 6.61035 12.9487 8.31623Z" fill="white"/>
<path fill-rule="evenodd" clip-rule="evenodd" d="M7.81798 6.99992H16.2026C17.5587 6.7294 18.9495 7.42715 19.5265 8.72038L22.9501 16.3939C23.4666 17.5515 23.1998 18.9087 22.2836 19.7846L21.8392 20.2095C21.8188 20.2291 21.7981 20.2483 21.777 20.2671C20.6905 21.2412 19.02 21.15 18.0459 20.0635L15.2995 16.9999H8.86456L6.11808 20.0635C5.144 21.15 3.47354 21.2412 2.38699 20.2671C2.36595 20.2483 2.34521 20.2291 2.32479 20.2095L1.8577 19.7629C0.952699 18.8977 0.680258 17.5613 1.1743 16.4108L4.46146 8.75582C5.02844 7.43545 6.44099 6.71755 7.81798 6.99992ZM7.99999 13.9999C9.10456 13.9999 9.99999 13.1045 9.99999 11.9999C9.99999 10.8953 9.10456 9.99992 7.99999 9.99992C6.89542 9.99992 5.99999 10.8953 5.99999 11.9999C5.99999 13.1045 6.89542 13.9999 7.99999 13.9999ZM17 11.9999C17.5523 11.9999 18 11.5522 18 10.9999C18 10.4476 17.5523 9.99992 17 9.99992C16.4477 9.99992 16 10.4476 16 10.9999C16 11.5522 16.4477 11.9999 17 11.9999ZM15 13.9999C15.5523 13.9999 16 13.5522 16 12.9999C16 12.4476 15.5523 11.9999 15 11.9999C14.4477 11.9999 14 12.4476 14 12.9999C14 13.5522 14.4477 13.9999 15 13.9999Z" fill="white"/>
</g>
<defs>
<clipPath id="clip0_6_626">
<rect width="24" height="24" fill="white"/>
</clipPath>
</defs>
</svg>
