<svg width="39" height="39" viewBox="0 0 39 39" fill="none" xmlns="http://www.w3.org/2000/svg">
<path d="M19.8979 15.9545V23.5063H30.6068C30.1365 25.9349 28.7254 27.9914 26.609 29.3741L33.0668 34.2846C36.8294 30.881 39.0001 25.8819 39.0001 19.9433C39.0001 18.5606 38.8735 17.2309 38.6383 15.9547L19.8979 15.9545Z" fill="#4285F4"/>
<path d="M8.7464 23.2115L7.28992 24.3042L2.1344 28.2396C5.40854 34.6036 12.1192 39 19.8975 39C25.2698 39 29.774 37.2627 33.0663 34.2846L26.6085 29.3741C24.8357 30.5441 22.5746 31.2533 19.8975 31.2533C14.724 31.2533 10.3284 27.8319 8.75454 23.2228L8.7464 23.2115Z" fill="#34A853"/>
<path d="M2.13438 10.7605C0.777756 13.384 0 16.3445 0 19.4999C0 22.6553 0.777756 25.6158 2.13438 28.2394C2.13438 28.257 8.75515 23.2048 8.75515 23.2048C8.35719 22.0348 8.12196 20.794 8.12196 19.4997C8.12196 18.2055 8.35719 16.9646 8.75515 15.7946L2.13438 10.7605Z" fill="#FBBC05"/>
<path d="M19.8979 7.76454C22.8284 7.76454 25.4332 8.75724 27.5134 10.6718L33.2115 5.08779C29.7564 1.93239 25.2705 0 19.8979 0C12.1196 0 5.40854 4.37863 2.1344 10.7605L8.75497 15.795C10.3286 11.1859 14.7244 7.76454 19.8979 7.76454Z" fill="#EA4335"/>
</svg>
