<svg width="50" height="49" viewBox="0 0 50 49" fill="none" xmlns="http://www.w3.org/2000/svg">
<g clip-path="url(#clip0_7_204)">
<path fill-rule="evenodd" clip-rule="evenodd" d="M43.4341 21.7182H40.5634C39.8762 21.7182 39.2172 21.9911 38.7313 22.477C38.2454 22.9629 37.9724 23.6219 37.9724 24.3091C37.9724 24.9962 38.2454 25.6552 38.7313 26.1411C39.2172 26.627 39.8762 26.9 40.5634 26.9H43.4341C42.8694 30.8898 41.0233 34.5881 38.1739 37.4375C35.3245 40.2868 31.6263 42.1329 27.6364 42.6976V39.8269C27.6364 39.1397 27.3635 38.4807 26.8776 37.9949C26.3917 37.509 25.7327 37.236 25.0455 37.236C24.3584 37.236 23.6994 37.509 23.2135 37.9949C22.7276 38.4807 22.4546 39.1397 22.4546 39.8269V42.6976C18.4648 42.1329 14.7665 40.2868 11.9172 37.4375C9.06778 34.5881 7.22167 30.8898 6.65699 26.9H9.52771C10.2149 26.9 10.8739 26.627 11.3598 26.1411C11.8457 25.6552 12.1186 24.9962 12.1186 24.3091C12.1186 23.6219 11.8457 22.9629 11.3598 22.477C10.8739 21.9911 10.2149 21.7182 9.52771 21.7182H6.65699C7.22167 17.7283 9.06778 14.0301 11.9172 11.1807C14.7665 8.33133 18.4648 6.48522 22.4546 5.92054V8.79126C22.4546 9.47842 22.7276 10.1374 23.2135 10.6233C23.6994 11.1092 24.3584 11.3822 25.0455 11.3822C25.7327 11.3822 26.3917 11.1092 26.8776 10.6233C27.3635 10.1374 27.6364 9.47842 27.6364 8.79126V5.92054C31.6263 6.48522 35.3245 8.33133 38.1739 11.1807C41.0233 14.0301 42.8694 17.7283 43.4341 21.7182ZM1.29553 24.3091C1.29553 18.0102 3.79776 11.9693 8.25175 7.5153C12.7057 3.06131 18.7466 0.559082 25.0455 0.559082C31.3444 0.559082 37.3853 3.06131 41.8393 7.5153C46.2933 11.9693 48.7955 18.0102 48.7955 24.3091C48.7955 30.608 46.2933 36.6489 41.8393 41.1029C37.3853 45.5569 31.3444 48.0591 25.0455 48.0591C18.7466 48.0591 12.7057 45.5569 8.25175 41.1029C3.79776 36.6489 1.29553 30.608 1.29553 24.3091ZM16.9135 24.3091C16.9135 25.7393 18.0743 26.9 19.5044 26.9H22.4546V29.8502C22.4546 30.5373 22.7276 31.1963 23.2135 31.6822C23.6994 32.1681 24.3584 32.4411 25.0455 32.4411C25.7327 32.4411 26.3917 32.1681 26.8776 31.6822C27.3635 31.1963 27.6364 30.5373 27.6364 29.8502V26.9H30.5866C31.2738 26.9 31.9328 26.627 32.4187 26.1411C32.9046 25.6552 33.1775 24.9962 33.1775 24.3091C33.1775 23.6219 32.9046 22.9629 32.4187 22.477C31.9328 21.9911 31.2738 21.7182 30.5866 21.7182H27.6364V18.768C27.6364 18.0808 27.3635 17.4218 26.8776 16.9359C26.3917 16.4501 25.7327 16.1771 25.0455 16.1771C24.3584 16.1771 23.6994 16.4501 23.2135 16.9359C22.7276 17.4218 22.4546 18.0808 22.4546 18.768V21.7182H19.5044C18.8173 21.7182 18.1583 21.9911 17.6724 22.477C17.1865 22.9629 16.9135 23.6219 16.9135 24.3091Z" fill="#DBB968"/>
</g>
<defs>
<clipPath id="clip0_7_204">
<rect width="48.3636" height="48.3636" fill="white" transform="translate(0.863647 0.127197)"/>
</clipPath>
</defs>
</svg>
