<svg width="53" height="53" viewBox="0 0 53 53" fill="none" xmlns="http://www.w3.org/2000/svg">
<g clip-path="url(#clip0_7_342)">
<path d="M28.8428 0.898438C29.6072 0.898438 30.291 1.37424 30.5484 2.08664L32.384 7.17484C33.0409 7.33777 33.6077 7.50417 34.0844 7.67404C34.6044 7.8595 35.2804 8.1455 36.1124 8.53204L40.3868 6.27004C40.7354 6.08435 41.1351 6.01715 41.5253 6.0786C41.9156 6.14004 42.2752 6.32679 42.55 6.61064L46.3096 10.4976C46.8088 11.015 46.9492 11.7716 46.6684 12.432L44.6638 17.1302C44.9948 17.7404 45.2618 18.2638 45.4646 18.7006C45.683 19.1738 45.9534 19.8325 46.2758 20.6766L50.948 22.6786C51.65 22.9776 52.0842 23.6796 52.0374 24.431L51.6942 29.826C51.6707 30.1765 51.5449 30.5124 51.3323 30.792C51.1196 31.0717 50.8296 31.2827 50.4982 31.399L46.073 32.972C45.9464 33.5822 45.813 34.1074 45.6726 34.5476C45.4454 35.23 45.1868 35.9015 44.8978 36.56L47.1208 41.474C47.2789 41.8191 47.3218 42.2058 47.2432 42.5771C47.1645 42.9484 46.9684 43.2846 46.684 43.5358L42.4564 47.311C42.1785 47.5596 41.831 47.7169 41.4608 47.7615C41.0907 47.8061 40.7158 47.736 40.3868 47.5606L36.0292 45.2518C35.3481 45.6142 34.6447 45.9329 33.9232 46.206L32.02 46.9184L30.33 51.5984C30.2035 51.9404 29.9773 52.2364 29.6806 52.4483C29.3839 52.6602 29.0304 52.778 28.666 52.7866L23.726 52.8984C23.3517 52.9071 22.9839 52.8002 22.6726 52.5922C22.3613 52.3842 22.1218 52.0853 21.9866 51.7362L19.995 46.466C19.3156 46.2333 18.6428 45.9819 17.9774 45.712C17.4332 45.4765 16.8973 45.2224 16.3706 44.9502L11.4306 47.0614C11.1052 47.201 10.7462 47.2426 10.3975 47.1812C10.0488 47.1197 9.72567 46.958 9.46756 46.7156L5.81196 43.2862C5.53878 43.0327 5.35271 42.6993 5.28033 42.3337C5.20796 41.9681 5.25297 41.5889 5.40896 41.2504L7.53316 36.6224C7.25165 36.0738 6.98975 35.5153 6.74796 34.948C6.46631 34.2534 6.20618 33.5502 5.96796 32.8394L1.31396 31.4224C0.935659 31.3081 0.605702 31.072 0.37533 30.7509C0.144958 30.4298 0.0270641 30.0416 0.0399569 29.6466L0.221957 24.652C0.235477 24.3263 0.337506 24.0104 0.517078 23.7383C0.69665 23.4662 0.946977 23.2482 1.24116 23.1076L6.12396 20.7624C6.34929 19.9339 6.54862 19.2856 6.72196 18.8176C6.96727 18.1891 7.23966 17.5714 7.53836 16.9664L5.42196 12.4944C5.26013 12.1551 5.21069 11.773 5.28082 11.4036C5.35095 11.0342 5.53701 10.6969 5.81196 10.4404L9.46236 6.99284C9.71791 6.75092 10.0381 6.58827 10.3842 6.52459C10.7303 6.46091 11.0874 6.49892 11.4124 6.63404L16.3472 8.67244C16.8914 8.31017 17.3872 8.01204 17.8344 7.77804C18.3665 7.49724 19.0806 7.19737 19.9768 6.87844L21.6928 2.09184C21.8209 1.74238 22.0531 1.44061 22.3581 1.22722C22.6631 1.01383 23.0261 0.899079 23.3984 0.898438L28.8428 0.898438ZM26.1024 19.1478C21.7682 19.1478 18.2556 22.6188 18.2556 26.9036C18.2556 31.1884 21.7682 34.662 26.1024 34.662C30.4366 34.662 33.9466 31.1884 33.9466 26.9036C33.9466 22.6188 30.4366 19.1478 26.1024 19.1478Z" fill="white"/>
</g>
<defs>
<clipPath id="clip0_7_342">
<rect width="52" height="52" fill="white" transform="translate(0.039978 0.898438)"/>
</clipPath>
</defs>
</svg>
