<svg width="50" height="49" viewBox="0 0 50 49" fill="none" xmlns="http://www.w3.org/2000/svg">
<path d="M12.0989 40.4302C11.1706 40.4302 10.3961 40.1198 9.77542 39.4992C9.15476 38.8785 8.84375 38.1033 8.84241 37.1737V11.4442C8.84241 10.5159 9.15341 9.74143 9.77542 9.12076C10.3974 8.50009 11.1719 8.18909 12.0989 8.18774H37.8304C38.7573 8.18774 39.5318 8.49875 40.1538 9.12076C40.7758 9.74277 41.0862 10.5173 41.0848 11.4442V14.2332H28.2201C26.6093 14.2332 25.3284 14.7094 24.3772 15.6619C23.4247 16.6131 22.9485 17.8941 22.9485 19.5048V29.1151C22.9485 30.7245 23.4247 32.0048 24.3772 32.956C25.3284 33.9085 26.6093 34.3847 28.2201 34.3847H41.0848V37.1757C41.0848 38.1027 40.7745 38.8765 40.1538 39.4972C39.5332 40.1178 38.758 40.4288 37.8283 40.4302H12.0989ZM28.2201 32.3696C27.2918 32.3696 26.5173 32.0592 25.8966 31.4386C25.276 30.8179 24.965 30.0434 24.9636 29.1151V19.5028C24.9636 18.5758 25.2746 17.802 25.8966 17.1814C26.5186 16.5607 27.2931 16.2497 28.2201 16.2484H39.8455C40.7725 16.2484 41.547 16.5594 42.169 17.1814C42.791 17.8034 43.1013 18.5779 43.1 19.5048V29.1151C43.1 30.0421 42.7896 30.8166 42.169 31.4386C41.5483 32.0606 40.7738 32.3709 39.8455 32.3696H28.2201ZM33.0242 27.3317C33.8975 27.3317 34.6196 27.0462 35.1905 26.4752C35.7615 25.9043 36.047 25.1822 36.047 24.309C36.047 23.4357 35.7615 22.7136 35.1905 22.1427C34.6196 21.5717 33.8975 21.2862 33.0242 21.2862C32.151 21.2862 31.4289 21.5717 30.8579 22.1427C30.287 22.7136 30.0015 23.4357 30.0015 24.309C30.0015 25.1822 30.287 25.9043 30.8579 26.4752C31.4289 27.0462 32.151 27.3317 33.0242 27.3317Z" fill="#DBB968"/>
</svg>
