<svg width="48" height="49" viewBox="0 0 48 49" fill="none" xmlns="http://www.w3.org/2000/svg">
<path fill-rule="evenodd" clip-rule="evenodd" d="M42.4341 21.7182H39.5634C38.8762 21.7182 38.2172 21.9911 37.7313 22.477C37.2454 22.9629 36.9724 23.6219 36.9724 24.3091C36.9724 24.9962 37.2454 25.6552 37.7313 26.1411C38.2172 26.627 38.8762 26.9 39.5634 26.9H42.4341C41.8694 30.8898 40.0233 34.5881 37.1739 37.4375C34.3245 40.2868 30.6263 42.1329 26.6364 42.6976V39.8269C26.6364 39.1397 26.3635 38.4807 25.8776 37.9949C25.3917 37.509 24.7327 37.236 24.0455 37.236C23.3584 37.236 22.6994 37.509 22.2135 37.9949C21.7276 38.4807 21.4546 39.1397 21.4546 39.8269V42.6976C17.4648 42.1329 13.7665 40.2868 10.9172 37.4375C8.06778 34.5881 6.22167 30.8898 5.65699 26.9H8.52771C9.21487 26.9 9.87387 26.627 10.3598 26.1411C10.8457 25.6552 11.1186 24.9962 11.1186 24.3091C11.1186 23.6219 10.8457 22.9629 10.3598 22.477C9.87387 21.9911 9.21487 21.7182 8.52771 21.7182H5.65699C6.22167 17.7283 8.06778 14.0301 10.9172 11.1807C13.7665 8.33133 17.4648 6.48522 21.4546 5.92054V8.79126C21.4546 9.47842 21.7276 10.1374 22.2135 10.6233C22.6994 11.1092 23.3584 11.3822 24.0455 11.3822C24.7327 11.3822 25.3917 11.1092 25.8776 10.6233C26.3635 10.1374 26.6364 9.47842 26.6364 8.79126V5.92054C30.6263 6.48522 34.3245 8.33133 37.1739 11.1807C40.0233 14.0301 41.8694 17.7283 42.4341 21.7182ZM0.295532 24.3091C0.295532 18.0102 2.79776 11.9693 7.25175 7.5153C11.7057 3.06131 17.7466 0.559082 24.0455 0.559082C30.3444 0.559082 36.3853 3.06131 40.8393 7.5153C45.2933 11.9693 47.7955 18.0102 47.7955 24.3091C47.7955 30.608 45.2933 36.6489 40.8393 41.1029C36.3853 45.5569 30.3444 48.0591 24.0455 48.0591C17.7466 48.0591 11.7057 45.5569 7.25175 41.1029C2.79776 36.6489 0.295532 30.608 0.295532 24.3091ZM15.9135 24.3091C15.9135 25.7393 17.0743 26.9 18.5044 26.9H21.4546V29.8502C21.4546 30.5373 21.7276 31.1963 22.2135 31.6822C22.6994 32.1681 23.3584 32.4411 24.0455 32.4411C24.7327 32.4411 25.3917 32.1681 25.8776 31.6822C26.3635 31.1963 26.6364 30.5373 26.6364 29.8502V26.9H29.5866C30.2738 26.9 30.9328 26.627 31.4187 26.1411C31.9046 25.6552 32.1775 24.9962 32.1775 24.3091C32.1775 23.6219 31.9046 22.9629 31.4187 22.477C30.9328 21.9911 30.2738 21.7182 29.5866 21.7182H26.6364V18.768C26.6364 18.0808 26.3635 17.4218 25.8776 16.9359C25.3917 16.4501 24.7327 16.1771 24.0455 16.1771C23.3584 16.1771 22.6994 16.4501 22.2135 16.9359C21.7276 17.4218 21.4546 18.0808 21.4546 18.768V21.7182H18.5044C17.8173 21.7182 17.1583 21.9911 16.6724 22.477C16.1865 22.9629 15.9135 23.6219 15.9135 24.3091Z" fill="#DBB968"/>
</svg>
