<svg width="24" height="24" viewBox="0 0 24 24" fill="none" xmlns="http://www.w3.org/2000/svg">
<g clip-path="url(#clip0_6_599)">
<path opacity="0.3" d="M12.9487 8.31623L11.0513 7.68377C11.816 5.38965 13.0427 3.95855 14.7575 3.52986C15.6503 3.30665 17 1.86951 17 1H19C19 2.79716 17.0164 5.02668 15.2425 5.47014C14.2907 5.70811 13.5173 6.61035 12.9487 8.31623Z" fill="white"/>
<path fill-rule="evenodd" clip-rule="evenodd" d="M7.81798 7.00004H16.2026C17.5587 6.72952 18.9495 7.42728 19.5265 8.7205L22.9501 16.394C23.4666 17.5516 23.1998 18.9088 22.2836 19.7848L21.8392 20.2097C21.8188 20.2292 21.7981 20.2484 21.777 20.2672C20.6905 21.2413 19.02 21.1502 18.0459 20.0636L15.2995 17H8.86456L6.11808 20.0636C5.144 21.1502 3.47354 21.2413 2.38699 20.2672C2.36595 20.2484 2.34521 20.2292 2.32479 20.2097L1.8577 19.7631C0.952699 18.8978 0.680258 17.5615 1.1743 16.411L4.46146 8.75595C5.02844 7.43557 6.44099 6.71767 7.81798 7.00004ZM7.99999 14C9.10456 14 9.99999 13.1046 9.99999 12C9.99999 10.8955 9.10456 10 7.99999 10C6.89542 10 5.99999 10.8955 5.99999 12C5.99999 13.1046 6.89542 14 7.99999 14ZM17 12C17.5523 12 18 11.5523 18 11C18 10.4478 17.5523 10 17 10C16.4477 10 16 10.4478 16 11C16 11.5523 16.4477 12 17 12ZM15 14C15.5523 14 16 13.5523 16 13C16 12.4478 15.5523 12 15 12C14.4477 12 14 12.4478 14 13C14 13.5523 14.4477 14 15 14Z" fill="white"/>
</g>
<defs>
<clipPath id="clip0_6_599">
<rect width="24" height="24" fill="white"/>
</clipPath>
</defs>
</svg>
