<svg width="36" height="33" viewBox="0 0 36 33" fill="none" xmlns="http://www.w3.org/2000/svg">
<path d="M4.09889 32.4303C3.17058 32.4303 2.39609 32.12 1.77542 31.4993C1.15476 30.8786 0.843751 30.1035 0.842407 29.1738V3.44435C0.842407 2.51604 1.15341 1.74155 1.77542 1.12088C2.39743 0.500214 3.17192 0.18921 4.09889 0.187866H29.8304C30.7573 0.187866 31.5318 0.498871 32.1538 1.12088C32.7758 1.74289 33.0862 2.51738 33.0848 3.44435V6.23332H20.2201C18.6093 6.23332 17.3284 6.70957 16.3772 7.66206C15.4247 8.61321 14.9485 9.89418 14.9485 11.505V21.1152C14.9485 22.7246 15.4247 24.0049 16.3772 24.9561C17.3284 25.9086 18.6093 26.3848 20.2201 26.3848H33.0848V29.1758C33.0848 30.1028 32.7745 30.8766 32.1538 31.4973C31.5332 32.1179 30.758 32.4289 29.8283 32.4303H4.09889ZM20.2201 24.3697C19.2918 24.3697 18.5173 24.0594 17.8966 23.4387C17.276 22.818 16.965 22.0435 16.9636 21.1152V11.5029C16.9636 10.576 17.2746 9.80215 17.8966 9.18149C18.5186 8.56082 19.2931 8.24982 20.2201 8.24847H31.8455C32.7725 8.24847 33.547 8.55948 34.169 9.18149C34.791 9.8035 35.1013 10.578 35.1 11.505V21.1152C35.1 22.0422 34.7896 22.8167 34.169 23.4387C33.5483 24.0607 32.7738 24.371 31.8455 24.3697H20.2201ZM25.0242 19.3318C25.8975 19.3318 26.6196 19.0463 27.1905 18.4754C27.7615 17.9044 28.047 17.1823 28.047 16.3091C28.047 15.4358 27.7615 14.7137 27.1905 14.1428C26.6196 13.5718 25.8975 13.2864 25.0242 13.2864C24.151 13.2864 23.4289 13.5718 22.8579 14.1428C22.287 14.7137 22.0015 15.4358 22.0015 16.3091C22.0015 17.1823 22.287 17.9044 22.8579 18.4754C23.4289 19.0463 24.151 19.3318 25.0242 19.3318Z" fill="#DBB968"/>
</svg>
