<svg width="37" height="40" viewBox="0 0 37 40" fill="none" xmlns="http://www.w3.org/2000/svg">
<path d="M2.00606 39.8333C1.4351 39.8333 0.956835 39.6399 0.57127 39.253C0.185704 38.8661 -0.0077508 38.3878 -0.00909424 37.8182V31.7727C-0.00909424 30.6644 0.385876 29.7159 1.17581 28.9273C1.96575 28.1387 2.91422 27.7438 4.02121 27.7424H6.64091L7.74924 19.6818H4.02121C3.45025 19.6818 2.97199 19.4884 2.58642 19.1015C2.20086 18.7146 2.0074 18.2363 2.00606 17.6667C2.00471 17.0971 2.19817 16.6188 2.58642 16.2319C2.97467 15.845 3.45294 15.6515 4.02121 15.6515H32.2333C32.8043 15.6515 33.2832 15.845 33.6701 16.2319C34.057 16.6188 34.2498 17.0971 34.2485 17.6667C34.2471 18.2363 34.0537 18.7152 33.6681 19.1035C33.2826 19.4917 32.8043 19.6845 32.2333 19.6818H28.5053L29.6136 27.7424H32.2333C33.3417 27.7424 34.2908 28.1374 35.0807 28.9273C35.8707 29.7173 36.265 30.6657 36.2636 31.7727V37.8182C36.2636 38.3891 36.0702 38.8681 35.6833 39.255C35.2964 39.6419 34.8181 39.8347 34.2485 39.8333H2.00606ZM8.5553 12.6288C8.0851 12.6288 7.66527 12.4857 7.29583 12.1996C6.92639 11.9134 6.69128 11.5359 6.59053 11.0671L4.92803 3.56061C4.86085 3.19117 4.88638 2.86337 5.0046 2.57722C5.12282 2.29107 5.31561 2.0647 5.58295 1.89811C5.85029 1.73153 6.15257 1.6395 6.48977 1.62204C6.82697 1.60457 7.14604 1.6966 7.44697 1.89811C8.05151 2.23397 8.67285 2.50266 9.31098 2.70417C9.94911 2.90569 10.6208 3.00645 11.3261 3.00645C12.3001 3.00645 13.2237 2.80493 14.097 2.4019C14.9702 1.99887 15.7931 1.49508 16.5655 0.890538C16.8006 0.722608 17.0525 0.596997 17.3212 0.513704C17.5899 0.430411 17.8586 0.388093 18.1273 0.38675C18.396 0.385406 18.6646 0.427724 18.9333 0.513704C19.202 0.599684 19.4539 0.725295 19.689 0.890538C20.4615 1.49508 21.2843 1.99887 22.1576 2.4019C23.0308 2.80493 23.9544 3.00645 24.9284 3.00645C25.6337 3.00645 26.3054 2.89696 26.9436 2.67798C27.5817 2.459 28.203 2.18225 28.8076 1.84773C29.1434 1.67981 29.4712 1.61263 29.791 1.64622C30.1107 1.67981 30.4042 1.78056 30.6716 1.94849C30.9389 2.11642 31.1404 2.34279 31.2761 2.6276C31.4118 2.91241 31.4454 3.22341 31.3769 3.56061L29.7144 11.0671C29.6136 11.5373 29.3785 11.9154 29.0091 12.2016C28.6396 12.4877 28.2198 12.6301 27.7496 12.6288H8.5553Z" fill="#DBB968"/>
</svg>
