<svg width="320" height="331" viewBox="0 0 320 331" fill="none" xmlns="http://www.w3.org/2000/svg">
<path d="M0.313232 115.209L9.5902 213.021L60.0085 299.41L91.3046 260.725L51.0066 134.808L0.313232 115.209Z" fill="#46B5E0"/>
<path d="M319.304 115.209L310.101 213.021L259.701 299.41L228.001 260.414L268.703 134.826L319.304 115.209Z" fill="#0196DA"/>
<path d="M226.607 262.011H94.7308L63.6182 300.915L161.705 330.011L256.711 300.915L226.607 262.011Z" fill="#87C9EB"/>
<path d="M50.6933 130.904L0 112.607L67.5972 38.5929L158.607 0V55.0018L50.6017 130.904H50.6933Z" fill="#E3F4FC"/>
<path d="M269.288 130.904L320 112.607L252.384 38.5929L161.393 0V55.0018L269.38 130.904H269.288Z" fill="#82CEF0"/>
<path fill-rule="evenodd" clip-rule="evenodd" d="M266.595 136.403L160.203 60.0059L53.7932 136.422L94.4029 260.011H226.004L266.705 136.422L266.595 136.403ZM79.0024 196.539L160.203 256.124L241.404 196.539L210.402 100.029H109.987L79.0024 196.539Z" fill="#B9E2FE"/>
</svg>
